<svg viewBox="0 0 100 100" width="100" height="100" xmlns="http://www.w3.org/2000/svg">
  <defs>
    <!-- Gradiente tridimensionale per la ceralacca rossa -->
    <radialGradient id="ceralacca" cx="45%" cy="45%" r="55%">
      <stop offset="0%" stop-color="#D32F2F" />
      <stop offset="70%" stop-color="#B71C1C" />
      <stop offset="100%" stop-color="#5D0808" />
    </radialGradient>
    <!-- Gradiente per l'oro dello stemma interno -->
    <linearGradient id="oro" x1="0%" y1="0%" x2="100%" y2="100%">
      <stop offset="0%" stop-color="#FFE082" />
      <stop offset="50%" stop-color="#FFB300" />
      <stop offset="100%" stop-color="#B27A00" />
    </linearGradient>
  </defs>
  <!-- Bordo esterno irregolare del sigillo -->
  <path d="M 50,5 C 65,3 85,12 92,28 C 98,42 93,65 87,80 C 78,95 56,97 40,92 C 22,88 5,78 7,55 C 8,36 28,12 50,5 Z" fill="url(#ceralacca)" filter="drop-shadow(2px 3px 4px rgba(0,0,0,0.4))"/>
  <!-- Cerchio interno pressato -->
  <circle cx="50" cy="50" r="32" fill="#901414" stroke="#7A0F0F" stroke-width="1.5"/>
  <!-- Esempio di stemma interno (stella o corona semplificata) -->
  <path d="M 50,30 L 55,43 L 68,43 L 58,51 L 62,64 L 50,56 L 38,64 L 42,51 L 32,43 L 45,43 Z" fill="url(#oro)" opacity="0.85"/>
</svg>
